<?xml version="1.0" standalone="no"?>
<!DOCTYPE svg PUBLIC "-//W3C//DTD SVG 20010904//EN"
 "http://www.w3.org/TR/2001/REC-SVG-20010904/DTD/svg10.dtd">
<svg version="1.0" xmlns="http://www.w3.org/2000/svg"
 width="814.000000pt" height="594.000000pt" viewBox="0 0 814.000000 594.000000"
 preserveAspectRatio="xMidYMid meet">
 <defs>
    <style>
      .cls-1 {
        fill: #009e66;
      }

      .cls-1, .cls-2 {
        fill-rule: evenodd;
      }

      .cls-2 {
        fill: #fefefe;
        stroke: #009e66;
        stroke-width: 20;
      }
    </style>
  </defs>
<metadata>
Created by potrace 1.16, written by Peter Selinger 2001-2019
</metadata>
<g transform="translate(0.000000,594.000000) scale(0.100000,-0.100000)"
fill="#000000" stroke="none">
<path d="M3286 4538 c-5 -16 -32 -139 -91 -421 -25 -120 -43 -223 -39 -228 3
-5 20 -9 38 -9 31 0 32 2 44 60 7 32 16 61 20 63 13 8 147 -15 154 -26 3 -6
10 -37 13 -69 7 -61 22 -75 73 -66 19 3 17 14 -34 323 -30 176 -54 330 -54
342 0 27 -3 29 -67 38 -40 5 -54 4 -57 -7z m88 -312 c15 -87 25 -160 23 -162
-5 -6 -104 8 -118 16 -9 6 -5 42 19 162 18 84 32 158 32 163 0 6 4 3 9 -5 5
-8 21 -86 35 -174z"/>
<path d="M3584 4497 c-3 -9 -4 -26 -2 -39 3 -21 12 -24 100 -39 54 -9 100 -18
103 -21 5 -5 -34 -92 -179 -401 -52 -112 -59 -164 -23 -172 41 -8 237 -35 262
-35 22 0 25 4 25 34 0 39 4 37 -137 57 -46 6 -83 12 -83 14 0 1 26 58 59 126
167 353 171 363 171 408 l0 37 -122 18 c-68 10 -133 20 -145 23 -15 3 -25 0
-29 -10z"/>
<path d="M3937 4407 c-5 -38 -10 -503 -7 -625 0 -9 12 -12 38 -10 l37 3 6 330
c3 182 3 333 0 336 -3 4 -20 9 -37 12 -31 6 -31 6 -37 -46z"/>
<path d="M4090 4396 c0 -38 -4 -37 125 -56 38 -6 71 -13 74 -15 2 -3 -16 -49
-42 -102 -161 -345 -176 -382 -179 -423 l-3 -44 115 -17 c63 -10 132 -20 153
-23 l37 -6 0 40 c0 22 -3 40 -7 40 -26 1 -196 30 -201 34 -5 6 8 35 150 340
56 121 68 156 66 189 l-3 42 -115 17 c-171 25 -170 25 -170 -16z"/>
<path d="M3167 3683 c-3 -5 -6 -159 -8 -343 l-4 -335 98 -14 c112 -15 139 -11
177 28 55 54 51 233 -6 292 -25 27 -26 27 -6 38 28 15 42 63 42 143 0 113 -38
158 -145 176 -112 19 -144 22 -148 15z m191 -118 c17 -21 22 -38 22 -83 -1
-77 -17 -98 -75 -95 -24 1 -49 4 -55 8 -6 4 -10 49 -10 107 l0 101 48 -7 c33
-4 54 -13 70 -31z m1 -289 c23 -24 26 -34 26 -100 0 -105 -23 -128 -114 -110
l-31 7 0 120 0 120 46 -6 c32 -3 54 -13 73 -31z"/>
<path d="M3636 3609 c-4 -12 -25 -114 -112 -529 -25 -123 -24 -130 27 -130 24
0 27 5 39 60 7 33 16 63 20 65 11 7 145 -18 152 -28 3 -6 9 -35 13 -66 8 -62
15 -71 63 -71 27 0 32 3 29 18 -3 9 -29 163 -58 342 -29 179 -55 328 -58 332
-3 4 -30 10 -58 14 -41 5 -54 3 -57 -7z m89 -313 c14 -87 24 -160 22 -162 -4
-4 -118 14 -124 20 -3 2 10 77 28 165 19 88 37 155 40 148 4 -7 19 -84 34
-171z"/>
<path d="M3927 3243 c-6 -361 -7 -353 44 -353 l26 0 7 117 c8 118 23 167 43
141 6 -7 34 -69 63 -138 29 -69 58 -130 64 -136 6 -6 26 -14 44 -17 24 -5 32
-3 32 8 0 13 -55 148 -131 324 -10 24 -19 49 -19 55 0 7 36 71 80 144 45 73
78 137 75 142 -3 6 -23 10 -43 10 -37 0 -38 -2 -111 -125 -40 -69 -77 -128
-82 -131 -5 -3 -9 59 -9 139 0 142 0 145 -22 151 -58 15 -54 35 -61 -331z"/>
<path d="M4426 3498 c-3 -7 -32 -146 -66 -308 -33 -162 -63 -305 -65 -316 -5
-24 10 -34 50 -34 21 0 25 7 36 60 6 33 14 62 18 64 6 4 144 -13 149 -19 2 -1
8 -33 14 -69 12 -70 25 -83 76 -74 19 3 17 14 -34 323 -30 176 -54 330 -54
342 0 23 -9 28 -77 38 -32 5 -44 3 -47 -7z m89 -317 c14 -84 24 -155 22 -157
-4 -4 -118 13 -124 19 -2 2 10 71 27 153 16 81 30 153 30 159 1 37 22 -43 45
-174z"/>
<path d="M4690 3460 c0 -5 26 -96 57 -202 55 -186 57 -198 63 -338 l5 -145 36
-3 36 -3 7 62 c3 34 6 90 6 125 0 34 5 75 11 91 43 110 128 367 123 374 -3 5
-20 9 -39 9 l-33 0 -44 -132 c-24 -72 -49 -133 -55 -135 -6 -2 -14 9 -17 24
-30 123 -71 257 -83 269 -16 16 -73 19 -73 4z"/>
<path d="M5143 3395 c-63 -27 -72 -69 -74 -347 -1 -200 -1 -208 22 -250 44
-79 163 -114 224 -66 15 12 33 36 41 53 18 45 30 435 15 493 -28 102 -135 158
-228 117z m125 -90 c8 -7 17 -30 22 -51 11 -50 2 -390 -12 -426 -12 -31 -35
-42 -72 -32 -52 13 -56 31 -56 250 0 123 4 214 11 233 17 49 70 61 107 26z"/>
<path d="M5437 3188 c-4 -100 -7 -252 -7 -338 0 -155 0 -158 23 -164 57 -15
57 -15 57 107 1 108 10 148 36 147 5 0 36 -64 69 -141 32 -78 64 -143 71 -146
7 -2 26 -3 42 -1 l31 3 -80 191 -80 190 82 138 c88 147 90 159 25 154 -26 -3
-37 -17 -100 -122 -39 -66 -75 -121 -81 -123 -6 -2 -9 45 -7 132 2 105 0 136
-10 139 -7 3 -25 7 -39 10 l-26 6 -6 -182z"/>
<path d="M5847 3276 c-36 -34 -44 -77 -51 -281 -9 -252 3 -303 78 -359 21 -16
42 -21 92 -21 59 0 68 3 89 28 38 44 45 90 45 317 0 204 -1 218 -22 260 -29
56 -74 80 -149 80 -45 0 -61 -5 -82 -24z m153 -83 c21 -26 21 -35 18 -244 -3
-197 -5 -219 -22 -238 -26 -28 -61 -27 -92 4 l-25 25 3 224 c3 246 6 256 63
256 25 0 39 -7 55 -27z"/>
</g>
</svg>
